<svg xmlns="http://www.w3.org/2000/svg" width="24" height="24" fill="none" viewBox="0 0 24 24">
  <path fill="#000" d="M14.917 7.287a1.875 1.875 0 0 0 1.47-1.47c.036-.179.29-.179.326 0a1.875 1.875 0 0 0 1.47 1.47c.179.036.179.29 0 .326a1.875 1.875 0 0 0-1.47 1.47c-.035.179-.29.179-.326 0a1.875 1.875 0 0 0-1.47-1.47c-.178-.036-.178-.29 0-.326Z" opacity=".4"/>
  <path fill="#000" d="M8.187 11.783a2.802 2.802 0 0 0 2.196-2.197l.49-2.447c.093-.467.762-.467.855 0l.49 2.447a2.802 2.802 0 0 0 2.196 2.197l2.447.49c.468.093.468.762 0 .855l-2.447.49a2.802 2.802 0 0 0-2.197 2.196l-.49 2.447c-.092.468-.761.468-.854 0l-.49-2.447a2.802 2.802 0 0 0-2.196-2.197l-2.448-.49c-.467-.092-.467-.761 0-.855l2.448-.489Z"/>
</svg>
