<svg xmlns="http://www.w3.org/2000/svg" width="24" height="24" fill="none" viewBox="0 0 24 24">
  <path fill="#000" d="M12 5.7a6.3 6.3 0 1 1 0 12.6 6.3 6.3 0 1 1 0-12.6Zm5.249 6.427a15.98 15.98 0 0 1-2.47.644c-.091 1.696-.483 3.185-1.052 4.188a5.254 5.254 0 0 0 3.522-4.832Zm-10.497 0a5.254 5.254 0 0 0 3.521 4.832c-.568-1.003-.96-2.492-1.052-4.188a15.98 15.98 0 0 1-2.47-.644Zm.075-1.024c.779.267 1.573.472 2.376.616.037-1.899.447-3.579 1.07-4.679a5.257 5.257 0 0 0-3.446 4.063Zm10.347 0a5.257 5.257 0 0 0-3.447-4.063c.623 1.1 1.033 2.78 1.07 4.679a16.064 16.064 0 0 0 2.377-.616ZM12 17.25c.862 0 1.578-1.868 1.724-4.328a16.017 16.017 0 0 1-3.447 0c.145 2.46.862 4.328 1.723 4.328Zm0-10.5c-.952 0-1.726 2.28-1.75 5.12 1.164.127 2.337.127 3.5 0-.024-2.84-.798-5.12-1.75-5.12Z"/>
</svg>
