<svg xmlns="http://www.w3.org/2000/svg" width="24" height="24" fill="none" viewBox="0 0 24 24">
  <path fill="#000" fill-rule="evenodd" d="M7.052 7.05a7.001 7.001 0 0 1 9.9 0 6.97 6.97 0 0 1 2.002 4.15c.2 1.75-1.36 2.8-2.73 2.8H15a1 1 0 0 0-1 1v1.222c0 1.37-1.05 2.93-2.799 2.73A7 7 0 0 1 7.051 7.05Zm9.192.707a6.001 6.001 0 0 0-8.485 0l-.213.224a6 6 0 0 0 3.769 9.978c.91.103 1.595-.655 1.677-1.555l.01-.182V15a2 2 0 0 1 1.794-1.99l.205-.01h1.223c.915 0 1.738-.629 1.746-1.507l-.009-.179a5.968 5.968 0 0 0-1.535-3.367l-.182-.19ZM8.5 13.134a1 1 0 1 1 1.001 1.733 1 1 0 0 1-1-1.733ZM8.134 9.5a1 1 0 1 1 1.732 1 1 1 0 0 1-1.732-1Zm6.366-.366a1 1 0 1 1 1.001 1.733 1 1 0 0 1-1-1.733ZM12 7a1 1 0 1 1 0 2 1 1 0 0 1 0-2Z" clip-rule="evenodd"/>
</svg>
