<svg xmlns="http://www.w3.org/2000/svg" width="24" height="24" fill="none" viewBox="0 0 24 24">
  <path fill="#000" fill-rule="evenodd" d="M12 19a6.973 6.973 0 0 0 4.584-1.71L6.709 7.417A7 7 0 0 0 12 19Zm-4-5a.5.5 0 1 0 0 1h3a.5.5 0 0 0 0-1H8Z" clip-rule="evenodd" opacity=".3"/>
  <path fill="#000" d="M12 4a8 8 0 1 1 0 16 8 8 0 0 1 0-16ZM6.71 7.417a7 7 0 0 0 9.872 9.872L6.71 7.417ZM12 5a6.972 6.972 0 0 0-4.583 1.71l9.872 9.872A7 7 0 0 0 12 5Zm-1 9a.5.5 0 1 1 0 1H8a.5.5 0 0 1 0-1h3Zm3.5-6.5a.5.5 0 0 1 .5.5v1h1a.5.5 0 0 1 0 1h-1v1a.5.5 0 0 1-1 0v-1h-1a.5.5 0 0 1 0-1h1V8a.5.5 0 0 1 .5-.5Z"/>
</svg>
