<svg xmlns="http://www.w3.org/2000/svg" width="24" height="24" fill="none" viewBox="0 0 24 24">
  <path fill="#000" d="M11.5 5a6.5 6.5 0 0 1 6.48 6H18v1h-.021A6.498 6.498 0 0 1 5 11.5 6.5 6.5 0 0 1 11.5 5Zm-1.99 7c.063 1.46.39 2.745.83 3.665.245.513.508.875.742 1.094.177.165.302.218.37.234L11.5 17c.039 0 .181-.02.418-.241.234-.22.497-.58.742-1.094.44-.92.768-2.204.83-3.665H9.51Zm-3.487 0a5.502 5.502 0 0 0 3.76 4.725c-.69-1.092-1.197-2.79-1.272-4.725H6.023Zm8.466 0c-.075 1.935-.583 3.633-1.273 4.725A5.502 5.502 0 0 0 16.976 12H14.49ZM9.783 6.274A5.503 5.503 0 0 0 6.023 11h2.488c.075-1.936.582-3.634 1.272-4.726ZM11.5 6c-.039 0-.181.02-.418.241-.234.22-.497.58-.742 1.094-.44.92-.767 2.204-.83 3.665h3.98c-.063-1.46-.39-2.745-.83-3.665-.245-.513-.508-.874-.742-1.094C11.681 6.02 11.538 6 11.5 6Zm1.716.274c.69 1.092 1.198 2.79 1.273 4.726h2.488a5.503 5.503 0 0 0-3.761-4.726Z"/>
</svg>
