<svg xmlns="http://www.w3.org/2000/svg" width="24" height="24" fill="none" viewBox="0 0 24 24">
  <path fill="#000" d="m15.582 5.518.025.01c.062.025.11.074.137.136l.875 2.063c.128.3.367.54.667.667l2.063.875a.258.258 0 0 1 0 .475l-2.063.875c-.3.128-.54.367-.667.667l-.875 2.063a.258.258 0 0 1-.475 0l-.875-2.063a1.258 1.258 0 0 0-.522-.594l-.115-.06-2.093-.888a.258.258 0 0 1 0-.475l2.063-.875c.3-.127.54-.366.667-.667l.875-2.063a.258.258 0 0 1 .313-.146Z" opacity=".2"/>
  <path fill="#000" fill-rule="evenodd" d="m15.592 5.012.136.028.02.006.02.008.025.01a.753.753 0 0 1 .41.4l.001.005.875 2.062.07.13a.76.76 0 0 0 .332.273l2.063.875a.76.76 0 0 1 .336 1.116.76.76 0 0 1-.336.28l-.55.232c.002.02.006.041.006.063v4c0 .692 0 1.24-.036 1.683-.037.447-.113.829-.29 1.178v.001a3 3 0 0 1-1.312 1.312c-.35.177-.732.253-1.18.29-.441.036-.99.036-1.682.036h-4c-.692 0-1.24 0-1.683-.036-.447-.037-.829-.113-1.178-.29h-.001a3.001 3.001 0 0 1-1.312-1.312c-.177-.35-.253-.732-.29-1.18C6 15.742 6 15.193 6 14.5v-4c0-.692 0-1.24.036-1.683.037-.447.113-.829.29-1.178v-.001a3.001 3.001 0 0 1 1.312-1.312c.35-.177.732-.253 1.18-.29C9.258 6 9.807 6 10.5 6h4a.54.54 0 0 1 .08.007l.229-.538.066-.122a.758.758 0 0 1 .312-.269l.13-.047a.758.758 0 0 1 .275-.02ZM10.5 7c-.708 0-1.21 0-1.602.032a2.6 2.6 0 0 0-.657.121l-.15.065a2 2 0 0 0-.796.736l-.077.138c-.094.185-.154.42-.186.806C7 9.29 7 9.792 7 10.5v4c0 .708 0 1.21.032 1.602.032.385.092.62.186.806l.077.138a2 2 0 0 0 .797.736l.15.065c.162.058.367.097.656.12C9.29 18 9.792 18 10.5 18h4c.708 0 1.21 0 1.602-.032.385-.032.62-.092.806-.186l.138-.077c.313-.192.568-.468.736-.797l.065-.15a2.59 2.59 0 0 0 .12-.656C18 15.71 18 15.208 18 14.5v-3.643l-.519.221a.764.764 0 0 0-.402.403l-.875 2.063a.76.76 0 0 1-1.116.337.76.76 0 0 1-.28-.336v-.001l-.874-2.063a.758.758 0 0 0-.308-.353l-.08-.042-2.077-.882a.76.76 0 0 1-.454-.587l-.008-.11.008-.112a.76.76 0 0 1 .454-.586l2.063-.875a.756.756 0 0 0 .402-.4v-.002L14.159 7H10.5Zm4.354.922c-.155.369-.431.67-.779.86l-.153.072-1.538.652 1.568.666.019.008.017.008.116.061.021.012c.326.19.582.482.73.83l.652 1.538.651-1.538c.178-.42.514-.754.932-.932l1.539-.652-1.538-.653a1.762 1.762 0 0 1-.932-.93v-.002l-.652-1.538-.652 1.538Z" clip-rule="evenodd"/>
</svg>
