<svg xmlns="http://www.w3.org/2000/svg" width="24" height="24" fill="none" viewBox="0 0 24 24">
  <path fill="#000" fill-rule="evenodd" d="M7.758 7.757a6 6 0 0 1 10.12 5.447A1.989 1.989 0 0 0 17 13h-2a2 2 0 0 0-2 2v2c0 .315.075.612.205.877a6 6 0 0 1-5.446-10.12Z" clip-rule="evenodd" opacity=".2"/>
  <path fill="#000" fill-rule="evenodd" d="M7.05 7.05a7.002 7.002 0 0 1 9.901 0 6.97 6.97 0 0 1 2.003 4.15c.2 1.75-1.36 2.8-2.73 2.8H15a1 1 0 0 0-1 1v1.222c0 1.37-1.05 2.93-2.799 2.73A7 7 0 0 1 7.051 7.05Zm9.193.706a6 6 0 1 0-4.929 10.202c.91.104 1.596-.654 1.678-1.554l.008-.182v-1.223a2 2 0 0 1 2-2h1.224c.976 0 1.846-.715 1.736-1.685a5.972 5.972 0 0 0-1.717-3.558Zm-7.742 5.378a1 1 0 1 1 1 1.734 1 1 0 0 1-1-1.734ZM8.135 9.5a1 1 0 1 1 1.732 1 1 1 0 0 1-1.732-1Zm6.366-.366a1 1 0 1 1 1 1.733 1 1 0 0 1-1-1.733ZM12.001 7a1 1 0 1 1 0 2.001 1 1 0 0 1 0-2Z" clip-rule="evenodd"/>
</svg>
