<svg xmlns="http://www.w3.org/2000/svg" width="24" height="24" fill="none" viewBox="0 0 24 24">
  <path fill="#000" d="m10.298 9.85 3.019-1.508c.86-.43 1.771.482 1.341 1.341l-1.509 3.019a1 1 0 0 1-.447.447l-3.019 1.51c-.86.43-1.771-.483-1.341-1.342l1.509-3.019a1 1 0 0 1 .447-.447Z" opacity=".2"/>
  <path fill="#000" d="M11.5 5a6.5 6.5 0 1 1 0 13 6.5 6.5 0 0 1 0-13Zm0 1a5.5 5.5 0 1 0 0 11 5.5 5.5 0 0 0 0-11Zm1.817 2.342c.86-.43 1.772.482 1.342 1.342l-1.51 3.018c-.096.193-.254.35-.447.447l-3.018 1.51-.163.065c-.753.233-1.479-.493-1.245-1.247l.066-.16 1.509-3.018c.072-.145.18-.27.31-.364l.137-.084 3.02-1.51Zm-2.572 2.403-1.509 3.019 3.018-1.51 1.51-3.019-3.019 1.51Z"/>
</svg>
