<svg xmlns="http://www.w3.org/2000/svg" width="24" height="24" fill="none" viewBox="0 0 24 24">
  <path fill="#000" fill-rule="evenodd" d="M12 4.167a.5.5 0 0 1 .5.5c0 1.953.471 3.67 1.382 4.886C14.778 10.75 16.128 11.5 18 11.5a.5.5 0 1 1 0 1c-1.872 0-3.222.75-4.118 1.947-.91 1.216-1.382 2.933-1.382 4.886a.5.5 0 0 1-1 0c0-1.953-.471-3.67-1.382-4.885C9.222 13.25 7.872 12.5 6 12.5a.5.5 0 0 1 0-1c1.872 0 3.222-.75 4.118-1.947.91-1.216 1.382-2.933 1.382-4.886a.5.5 0 0 1 .5-.5Zm0 3.863a7.342 7.342 0 0 1-1.081 2.122A5.681 5.681 0 0 1 8.589 12a5.681 5.681 0 0 1 2.33 1.848A7.342 7.342 0 0 1 12 15.97c.257-.783.615-1.5 1.081-2.122A5.68 5.68 0 0 1 15.411 12a5.68 5.68 0 0 1-2.33-1.848A7.342 7.342 0 0 1 12 8.03Z" clip-rule="evenodd"/>
</svg>
